<mxfile host="65bd71144e">
    <diagram id="5Q62P2Yt9DGHxvfNhMTY" name="Page-1">
        <mxGraphModel dx="2187" dy="1017" grid="1" gridSize="10" guides="1" tooltips="1" connect="1" arrows="1" fold="1" page="1" pageScale="1" pageWidth="850" pageHeight="1100" math="0" shadow="0">
            <root>
                <mxCell id="0"/>
                <mxCell id="1" parent="0"/>
                <mxCell id="64" value="" style="rounded=0;whiteSpace=wrap;html=1;fillColor=none;fontSize=15;" parent="1" vertex="1">
                    <mxGeometry x="810" y="325" width="290" height="130" as="geometry"/>
                </mxCell>
                <mxCell id="2" value="" style="rounded=0;whiteSpace=wrap;html=1;fillColor=none;fontSize=15;" parent="1" vertex="1">
                    <mxGeometry x="85" y="150" width="270" height="199.75" as="geometry"/>
                </mxCell>
                <mxCell id="21" value="" style="rounded=1;whiteSpace=wrap;html=1;fontSize=15;fontColor=#000000;fillColor=none;dashed=1;dashPattern=8 8;" parent="1" vertex="1">
                    <mxGeometry x="-39.99999999999997" y="680" width="530" height="280" as="geometry"/>
                </mxCell>
                <mxCell id="5" value="prepare.py" style="sketch=0;pointerEvents=1;shadow=0;dashed=0;html=1;strokeColor=#006EAF;fillColor=#1ba1e2;labelPosition=center;verticalLabelPosition=bottom;verticalAlign=top;outlineConnect=0;align=center;shape=mxgraph.office.concepts.script;fontColor=#000000;fontSize=15;" parent="1" vertex="1">
                    <mxGeometry x="265" y="164" width="40" height="39.5" as="geometry"/>
                </mxCell>
                <mxCell id="7" value="train_dreambooth.py" style="sketch=0;pointerEvents=1;shadow=0;dashed=0;html=1;strokeColor=#006EAF;fillColor=#1ba1e2;labelPosition=center;verticalLabelPosition=bottom;verticalAlign=top;outlineConnect=0;align=center;shape=mxgraph.office.concepts.script;fontColor=#000000;fontSize=15;" parent="1" vertex="1">
                    <mxGeometry x="260" y="280" width="40" height="39.5" as="geometry"/>
                </mxCell>
                <mxCell id="8" value="dreambooth" style="text;html=1;strokeColor=none;fillColor=none;align=center;verticalAlign=middle;whiteSpace=wrap;rounded=0;fontSize=17;fontStyle=4" parent="1" vertex="1">
                    <mxGeometry x="90" y="150" width="100" height="30" as="geometry"/>
                </mxCell>
                <mxCell id="9" value="train.sh" style="sketch=0;pointerEvents=1;shadow=0;dashed=0;html=1;strokeColor=none;fillColor=#505050;labelPosition=center;verticalLabelPosition=bottom;verticalAlign=top;outlineConnect=0;align=center;shape=mxgraph.office.concepts.script;fontSize=15;" parent="1" vertex="1">
                    <mxGeometry x="110" y="190" width="40" height="39.5" as="geometry"/>
                </mxCell>
                <mxCell id="10" value="" style="endArrow=classic;html=1;fontColor=#000000;fontSize=15;" parent="1" edge="1">
                    <mxGeometry width="50" height="50" relative="1" as="geometry">
                        <mxPoint x="160" y="220" as="sourcePoint"/>
                        <mxPoint x="220" y="330" as="targetPoint"/>
                    </mxGeometry>
                </mxCell>
                <mxCell id="11" value="" style="endArrow=classic;html=1;fontColor=#000000;fontSize=15;" parent="1" edge="1">
                    <mxGeometry width="50" height="50" relative="1" as="geometry">
                        <mxPoint x="160" y="219.5" as="sourcePoint"/>
                        <mxPoint x="250" y="220" as="targetPoint"/>
                    </mxGeometry>
                </mxCell>
                <mxCell id="12" value="" style="rounded=0;whiteSpace=wrap;html=1;fillColor=none;fontSize=15;" parent="1" vertex="1">
                    <mxGeometry x="90" y="410" width="270" height="199.75" as="geometry"/>
                </mxCell>
                <mxCell id="13" value="handler.py&amp;nbsp;" style="sketch=0;pointerEvents=1;shadow=0;dashed=0;html=1;strokeColor=#006EAF;fillColor=#1ba1e2;labelPosition=center;verticalLabelPosition=bottom;verticalAlign=top;outlineConnect=0;align=center;shape=mxgraph.office.concepts.script;fontColor=#000000;fontSize=15;" parent="1" vertex="1">
                    <mxGeometry x="140" y="440" width="40" height="39.5" as="geometry"/>
                </mxCell>
                <mxCell id="14" value="img-gen" style="text;html=1;strokeColor=none;fillColor=none;align=center;verticalAlign=middle;whiteSpace=wrap;rounded=0;fontSize=17;fontStyle=4" parent="1" vertex="1">
                    <mxGeometry x="90" y="410" width="70" height="30" as="geometry"/>
                </mxCell>
                <mxCell id="15" value="&lt;ul&gt;&lt;li&gt;Image to Image&lt;/li&gt;&lt;li&gt;Inpaint&lt;/li&gt;&lt;li&gt;ControlNet OpenPose&lt;/li&gt;&lt;/ul&gt;" style="text;strokeColor=none;fillColor=none;html=1;whiteSpace=wrap;verticalAlign=middle;overflow=hidden;fontSize=15;fontColor=#000000;" parent="1" vertex="1">
                    <mxGeometry x="110" y="499.75" width="200" height="90.25" as="geometry"/>
                </mxCell>
                <mxCell id="16" value="" style="rounded=0;whiteSpace=wrap;html=1;fillColor=none;fontSize=15;" parent="1" vertex="1">
                    <mxGeometry x="-19.99999999999997" y="740" width="150" height="200" as="geometry"/>
                </mxCell>
                <mxCell id="17" value="morph" style="text;html=1;strokeColor=none;fillColor=none;align=center;verticalAlign=middle;whiteSpace=wrap;rounded=0;fontSize=17;fontStyle=4" parent="1" vertex="1">
                    <mxGeometry x="-19.99999999999997" y="740" width="70" height="30" as="geometry"/>
                </mxCell>
                <mxCell id="18" value="morpher.py&amp;nbsp;" style="sketch=0;pointerEvents=1;shadow=0;dashed=0;html=1;strokeColor=#006EAF;fillColor=#1ba1e2;labelPosition=center;verticalLabelPosition=bottom;verticalAlign=top;outlineConnect=0;align=center;shape=mxgraph.office.concepts.script;fontColor=#000000;fontSize=15;" parent="1" vertex="1">
                    <mxGeometry x="20.00000000000003" y="775.25" width="40" height="39.5" as="geometry"/>
                </mxCell>
                <mxCell id="20" value="&lt;ul&gt;&lt;li&gt;Full&lt;/li&gt;&lt;/ul&gt;" style="text;strokeColor=none;fillColor=none;html=1;whiteSpace=wrap;verticalAlign=middle;overflow=hidden;fontSize=15;fontColor=#000000;" parent="1" vertex="1">
                    <mxGeometry x="-4.999999999999972" y="829.75" width="90" height="50.75" as="geometry"/>
                </mxCell>
                <mxCell id="22" value="" style="rounded=0;whiteSpace=wrap;html=1;fillColor=none;fontSize=15;" parent="1" vertex="1">
                    <mxGeometry x="150.00000000000003" y="740" width="150" height="200" as="geometry"/>
                </mxCell>
                <mxCell id="23" value="morph" style="text;html=1;strokeColor=none;fillColor=none;align=center;verticalAlign=middle;whiteSpace=wrap;rounded=0;fontSize=17;fontStyle=4" parent="1" vertex="1">
                    <mxGeometry x="150.00000000000003" y="740" width="70" height="30" as="geometry"/>
                </mxCell>
                <mxCell id="24" value="morpher.py&amp;nbsp;" style="sketch=0;pointerEvents=1;shadow=0;dashed=0;html=1;strokeColor=#006EAF;fillColor=#1ba1e2;labelPosition=center;verticalLabelPosition=bottom;verticalAlign=top;outlineConnect=0;align=center;shape=mxgraph.office.concepts.script;fontColor=#000000;fontSize=15;" parent="1" vertex="1">
                    <mxGeometry x="190.00000000000003" y="775.25" width="40" height="39.5" as="geometry"/>
                </mxCell>
                <mxCell id="25" value="&lt;ul&gt;&lt;li&gt;Head&lt;/li&gt;&lt;/ul&gt;" style="text;strokeColor=none;fillColor=none;html=1;whiteSpace=wrap;verticalAlign=middle;overflow=hidden;fontSize=15;fontColor=#000000;" parent="1" vertex="1">
                    <mxGeometry x="170.00000000000003" y="848.75" width="90" height="50.75" as="geometry"/>
                </mxCell>
                <mxCell id="26" value="" style="rounded=0;whiteSpace=wrap;html=1;fillColor=none;fontSize=15;" parent="1" vertex="1">
                    <mxGeometry x="320" y="740" width="150" height="200" as="geometry"/>
                </mxCell>
                <mxCell id="27" value="morph" style="text;html=1;strokeColor=none;fillColor=none;align=center;verticalAlign=middle;whiteSpace=wrap;rounded=0;fontSize=17;fontStyle=4" parent="1" vertex="1">
                    <mxGeometry x="320" y="740" width="70" height="30" as="geometry"/>
                </mxCell>
                <mxCell id="28" value="morpher.py&amp;nbsp;" style="sketch=0;pointerEvents=1;shadow=0;dashed=0;html=1;strokeColor=#006EAF;fillColor=#1ba1e2;labelPosition=center;verticalLabelPosition=bottom;verticalAlign=top;outlineConnect=0;align=center;shape=mxgraph.office.concepts.script;fontColor=#000000;fontSize=15;" parent="1" vertex="1">
                    <mxGeometry x="360" y="775.25" width="40" height="39.5" as="geometry"/>
                </mxCell>
                <mxCell id="29" value="&lt;ul&gt;&lt;li&gt;Face&lt;/li&gt;&lt;/ul&gt;" style="text;strokeColor=none;fillColor=none;html=1;whiteSpace=wrap;verticalAlign=middle;overflow=hidden;fontSize=15;fontColor=#000000;" parent="1" vertex="1">
                    <mxGeometry x="340" y="869.25" width="90" height="50.75" as="geometry"/>
                </mxCell>
                <mxCell id="30" value="Morphing" style="text;html=1;strokeColor=none;fillColor=none;align=center;verticalAlign=middle;whiteSpace=wrap;rounded=0;fontSize=17;fontStyle=0" parent="1" vertex="1">
                    <mxGeometry x="185.00000000000003" y="680" width="80" height="30" as="geometry"/>
                </mxCell>
                <mxCell id="31" value="Modelo" style="edgeStyle=segmentEdgeStyle;endArrow=classic;html=1;curved=0;rounded=0;endSize=8;startSize=8;fontSize=15;fontColor=#000000;" parent="1" edge="1">
                    <mxGeometry width="50" height="50" relative="1" as="geometry">
                        <mxPoint x="270" y="349.75" as="sourcePoint"/>
                        <mxPoint x="270" y="409.75" as="targetPoint"/>
                    </mxGeometry>
                </mxCell>
                <mxCell id="33" value="Imagen&amp;nbsp;generada&lt;br&gt;por&amp;nbsp;difusión" style="endArrow=classic;html=1;rounded=0;endSize=8;startSize=8;fontSize=15;fontColor=#000000;exitX=0.417;exitY=1.001;exitDx=0;exitDy=0;exitPerimeter=0;" parent="1" edge="1">
                    <mxGeometry width="50" height="50" relative="1" as="geometry">
                        <mxPoint x="222.5899999999997" y="609.9497499999999" as="sourcePoint"/>
                        <mxPoint x="223" y="680" as="targetPoint"/>
                    </mxGeometry>
                </mxCell>
                <mxCell id="39" value="&lt;b&gt;Conjunto de imagenes&lt;br&gt;&lt;/b&gt; &lt;b&gt;con morphing&lt;/b&gt; entre &lt;br&gt;la imagen de referncia y falsa" style="endArrow=none;html=1;fontSize=15;fontColor=#000000;" parent="1" edge="1">
                    <mxGeometry x="0.1035" y="-5" width="50" height="50" relative="1" as="geometry">
                        <mxPoint x="780" y="755" as="sourcePoint"/>
                        <mxPoint x="490" y="754.94" as="targetPoint"/>
                        <mxPoint as="offset"/>
                    </mxGeometry>
                </mxCell>
                <mxCell id="40" value="" style="endArrow=none;html=1;fontSize=15;fontColor=#000000;" parent="1" edge="1">
                    <mxGeometry width="50" height="50" relative="1" as="geometry">
                        <mxPoint x="-40" y="1370" as="sourcePoint"/>
                        <mxPoint x="-40" y="1210" as="targetPoint"/>
                    </mxGeometry>
                </mxCell>
                <mxCell id="44" value="Conjunto de&amp;nbsp;&lt;br&gt;entrenamiento" style="curved=1;endArrow=classic;html=1;fontSize=15;fontColor=#000000;dashed=1;" parent="1" edge="1">
                    <mxGeometry x="-1" width="50" height="50" relative="1" as="geometry">
                        <mxPoint x="50" y="110" as="sourcePoint"/>
                        <mxPoint x="210" y="150" as="targetPoint"/>
                        <Array as="points">
                            <mxPoint x="210" y="110"/>
                        </Array>
                        <mxPoint as="offset"/>
                    </mxGeometry>
                </mxCell>
                <mxCell id="45" value="Imagen real de&lt;br&gt;referencia" style="curved=1;endArrow=classic;html=1;fontSize=15;fontColor=#000000;dashed=1;" parent="1" edge="1">
                    <mxGeometry x="-1" width="50" height="50" relative="1" as="geometry">
                        <mxPoint x="50" y="370" as="sourcePoint"/>
                        <mxPoint x="200" y="410" as="targetPoint"/>
                        <Array as="points">
                            <mxPoint x="190" y="370"/>
                        </Array>
                        <mxPoint as="offset"/>
                    </mxGeometry>
                </mxCell>
                <mxCell id="51" value="&lt;b&gt;CSV&lt;/b&gt; con la lista de &lt;br&gt;imágenes en el formato&lt;br&gt;&amp;nbsp;del &lt;b&gt;detector de difusión&lt;/b&gt;&amp;nbsp;" style="endArrow=none;html=1;fontSize=15;fontColor=#000000;" parent="1" edge="1">
                    <mxGeometry x="0.1111" width="50" height="50" relative="1" as="geometry">
                        <mxPoint x="760" y="830" as="sourcePoint"/>
                        <mxPoint x="490" y="829.75" as="targetPoint"/>
                        <mxPoint as="offset"/>
                    </mxGeometry>
                </mxCell>
                <mxCell id="54" value="&lt;b&gt;CSVs&lt;/b&gt; con las listas de &lt;br&gt;imágenes en el formato &lt;br&gt;del &lt;b&gt;detector de morphing&lt;/b&gt;" style="endArrow=none;html=1;fontSize=15;fontColor=#000000;" parent="1" edge="1">
                    <mxGeometry width="50" height="50" relative="1" as="geometry">
                        <mxPoint x="740" y="900" as="sourcePoint"/>
                        <mxPoint x="490" y="899.5" as="targetPoint"/>
                        <mxPoint as="offset"/>
                    </mxGeometry>
                </mxCell>
                <mxCell id="55" value="" style="rounded=0;whiteSpace=wrap;html=1;fillColor=none;fontSize=15;" parent="1" vertex="1">
                    <mxGeometry x="810" y="150" width="150" height="130.25" as="geometry"/>
                </mxCell>
                <mxCell id="56" value="main.py &amp;lt;CSV&amp;gt;" style="sketch=0;pointerEvents=1;shadow=0;dashed=0;html=1;strokeColor=#006EAF;fillColor=#1ba1e2;labelPosition=center;verticalLabelPosition=bottom;verticalAlign=top;outlineConnect=0;align=center;shape=mxgraph.office.concepts.script;fontColor=#000000;fontSize=15;" parent="1" vertex="1">
                    <mxGeometry x="865" y="190" width="40" height="39.5" as="geometry"/>
                </mxCell>
                <mxCell id="58" value="detect-diff" style="text;html=1;strokeColor=none;fillColor=none;align=center;verticalAlign=middle;whiteSpace=wrap;rounded=0;fontSize=17;fontStyle=4" parent="1" vertex="1">
                    <mxGeometry x="810" y="150" width="90" height="30" as="geometry"/>
                </mxCell>
                <mxCell id="62" value="" style="endArrow=none;html=1;fontSize=15;fontColor=#000000;" parent="1" edge="1">
                    <mxGeometry width="50" height="50" relative="1" as="geometry">
                        <mxPoint x="-20" y="1390" as="sourcePoint"/>
                        <mxPoint x="-20" y="1230" as="targetPoint"/>
                    </mxGeometry>
                </mxCell>
                <mxCell id="63" value="" style="endArrow=classic;html=1;fontSize=15;fontColor=#000000;entryX=0;entryY=0.5;entryDx=0;entryDy=0;" parent="1" edge="1">
                    <mxGeometry width="50" height="50" relative="1" as="geometry">
                        <mxPoint x="-20" y="1390" as="sourcePoint"/>
                        <mxPoint x="10" y="1390.375" as="targetPoint"/>
                    </mxGeometry>
                </mxCell>
                <mxCell id="65" value="test.py &amp;lt;CSV&amp;gt;" style="sketch=0;pointerEvents=1;shadow=0;dashed=0;html=1;strokeColor=#006EAF;fillColor=#1ba1e2;labelPosition=center;verticalLabelPosition=bottom;verticalAlign=top;outlineConnect=0;align=center;shape=mxgraph.office.concepts.script;fontColor=#000000;fontSize=15;" parent="1" vertex="1">
                    <mxGeometry x="1020" y="365" width="40" height="39.5" as="geometry"/>
                </mxCell>
                <mxCell id="66" value="detect-morph" style="text;html=1;strokeColor=none;fillColor=none;align=center;verticalAlign=middle;whiteSpace=wrap;rounded=0;fontSize=17;fontStyle=4" parent="1" vertex="1">
                    <mxGeometry x="810" y="325" width="120" height="30" as="geometry"/>
                </mxCell>
                <mxCell id="67" value="" style="endArrow=none;html=1;fontSize=15;fontColor=#000000;" parent="1" edge="1">
                    <mxGeometry width="50" height="50" relative="1" as="geometry">
                        <mxPoint x="190.00000000000023" y="1370" as="sourcePoint"/>
                        <mxPoint x="190.00000000000023" y="1210" as="targetPoint"/>
                    </mxGeometry>
                </mxCell>
                <mxCell id="68" value="" style="endArrow=classic;html=1;fontSize=15;fontColor=#000000;entryX=0;entryY=0.5;entryDx=0;entryDy=0;" parent="1" edge="1">
                    <mxGeometry width="50" height="50" relative="1" as="geometry">
                        <mxPoint x="190.00000000000023" y="1369.5" as="sourcePoint"/>
                        <mxPoint x="240.00000000000023" y="1369.8750000000002" as="targetPoint"/>
                    </mxGeometry>
                </mxCell>
                <mxCell id="69" value="" style="endArrow=none;html=1;fontSize=15;fontColor=#000000;" parent="1" edge="1">
                    <mxGeometry width="50" height="50" relative="1" as="geometry">
                        <mxPoint x="210.00000000000023" y="1390" as="sourcePoint"/>
                        <mxPoint x="210" y="1250" as="targetPoint"/>
                    </mxGeometry>
                </mxCell>
                <mxCell id="70" value="" style="endArrow=classic;html=1;fontSize=15;fontColor=#000000;entryX=0;entryY=0.5;entryDx=0;entryDy=0;" parent="1" edge="1">
                    <mxGeometry width="50" height="50" relative="1" as="geometry">
                        <mxPoint x="780.0000000000002" y="557.38" as="sourcePoint"/>
                        <mxPoint x="810.0000000000002" y="557.755" as="targetPoint"/>
                    </mxGeometry>
                </mxCell>
                <mxCell id="71" value="wrapper.sh" style="sketch=0;pointerEvents=1;shadow=0;dashed=0;html=1;strokeColor=none;fillColor=#505050;labelPosition=center;verticalLabelPosition=bottom;verticalAlign=top;outlineConnect=0;align=center;shape=mxgraph.office.concepts.script;fontSize=15;" parent="1" vertex="1">
                    <mxGeometry x="850" y="365" width="40" height="39.5" as="geometry"/>
                </mxCell>
                <mxCell id="72" value="for i in CSVs" style="endArrow=classic;html=1;fontSize=15;fontColor=#000000;" parent="1" edge="1">
                    <mxGeometry x="0.0412" width="50" height="50" relative="1" as="geometry">
                        <mxPoint x="890" y="385" as="sourcePoint"/>
                        <mxPoint x="1014.8600000000001" y="385" as="targetPoint"/>
                        <mxPoint as="offset"/>
                    </mxGeometry>
                </mxCell>
                <mxCell id="73" value="" style="rounded=0;whiteSpace=wrap;html=1;fillColor=none;fontSize=15;" parent="1" vertex="1">
                    <mxGeometry x="810" y="490.5" width="150" height="130" as="geometry"/>
                </mxCell>
                <mxCell id="74" value="arcfaces.py &amp;lt;dir&amp;gt;" style="sketch=0;pointerEvents=1;shadow=0;dashed=0;html=1;strokeColor=#006EAF;fillColor=#1ba1e2;labelPosition=center;verticalLabelPosition=bottom;verticalAlign=top;outlineConnect=0;align=center;shape=mxgraph.office.concepts.script;fontColor=#000000;fontSize=15;" parent="1" vertex="1">
                    <mxGeometry x="865" y="538" width="40" height="39.5" as="geometry"/>
                </mxCell>
                <mxCell id="75" value="arcfaces" style="text;html=1;strokeColor=none;fillColor=none;align=center;verticalAlign=middle;whiteSpace=wrap;rounded=0;fontSize=17;fontStyle=4" parent="1" vertex="1">
                    <mxGeometry x="810" y="490.5" width="80" height="30" as="geometry"/>
                </mxCell>
                <mxCell id="76" value="" style="endArrow=none;html=1;fontSize=15;fontColor=#000000;" parent="1" edge="1">
                    <mxGeometry width="50" height="50" relative="1" as="geometry">
                        <mxPoint x="420.0000000000002" y="1370" as="sourcePoint"/>
                        <mxPoint x="420.0000000000002" y="1210" as="targetPoint"/>
                    </mxGeometry>
                </mxCell>
                <mxCell id="77" value="" style="endArrow=classic;html=1;fontSize=15;fontColor=#000000;" parent="1" edge="1">
                    <mxGeometry width="50" height="50" relative="1" as="geometry">
                        <mxPoint x="420.0000000000002" y="1369.5" as="sourcePoint"/>
                        <mxPoint x="450" y="1370" as="targetPoint"/>
                    </mxGeometry>
                </mxCell>
                <mxCell id="78" value="" style="rounded=0;whiteSpace=wrap;html=1;fillColor=none;fontSize=15;" parent="1" vertex="1">
                    <mxGeometry x="1140" y="739.75" width="150" height="129.5" as="geometry"/>
                </mxCell>
                <mxCell id="79" value="eval" style="text;html=1;strokeColor=none;fillColor=none;align=center;verticalAlign=middle;whiteSpace=wrap;rounded=0;fontSize=17;fontStyle=4" parent="1" vertex="1">
                    <mxGeometry x="1140" y="740.25" width="60" height="30" as="geometry"/>
                </mxCell>
                <mxCell id="80" value="" style="endArrow=none;html=1;fontSize=15;fontColor=#000000;" parent="1" edge="1">
                    <mxGeometry width="50" height="50" relative="1" as="geometry">
                        <mxPoint x="525.1600000000001" y="1490" as="sourcePoint"/>
                        <mxPoint x="524.6600000000001" y="1469.75" as="targetPoint"/>
                    </mxGeometry>
                </mxCell>
                <mxCell id="81" value="" style="endArrow=none;html=1;fontSize=15;fontColor=#000000;" parent="1" edge="1">
                    <mxGeometry x="-0.6204" width="50" height="50" relative="1" as="geometry">
                        <mxPoint x="670" y="1490" as="sourcePoint"/>
                        <mxPoint x="525" y="1490" as="targetPoint"/>
                        <mxPoint as="offset"/>
                    </mxGeometry>
                </mxCell>
                <mxCell id="85" value="" style="endArrow=none;html=1;fontSize=15;fontColor=#000000;" parent="1" edge="1">
                    <mxGeometry width="50" height="50" relative="1" as="geometry">
                        <mxPoint x="85" y="1530" as="sourcePoint"/>
                        <mxPoint x="84.66000000000008" y="1469.75" as="targetPoint"/>
                    </mxGeometry>
                </mxCell>
                <mxCell id="86" value="" style="endArrow=none;html=1;fontSize=15;fontColor=#000000;" parent="1" edge="1">
                    <mxGeometry x="-0.6204" width="50" height="50" relative="1" as="geometry">
                        <mxPoint x="650" y="1510" as="sourcePoint"/>
                        <mxPoint x="310" y="1510" as="targetPoint"/>
                        <mxPoint as="offset"/>
                    </mxGeometry>
                </mxCell>
                <mxCell id="87" value="" style="endArrow=none;html=1;fontSize=15;fontColor=#000000;" parent="1" edge="1">
                    <mxGeometry x="-0.6204" width="50" height="50" relative="1" as="geometry">
                        <mxPoint x="630" y="1530" as="sourcePoint"/>
                        <mxPoint x="85.5" y="1530" as="targetPoint"/>
                        <mxPoint as="offset"/>
                    </mxGeometry>
                </mxCell>
                <mxCell id="88" value="" style="endArrow=none;html=1;fontSize=15;fontColor=#000000;" parent="1" edge="1">
                    <mxGeometry width="50" height="50" relative="1" as="geometry">
                        <mxPoint x="630.0000000000002" y="1530" as="sourcePoint"/>
                        <mxPoint x="630" y="1350" as="targetPoint"/>
                    </mxGeometry>
                </mxCell>
                <mxCell id="90" value="CSVs resultado de detección de difusión" style="endArrow=classic;html=1;fontSize=15;fontColor=#000000;entryX=0;entryY=0.25;entryDx=0;entryDy=0;" parent="1" edge="1">
                    <mxGeometry x="0.0588" width="50" height="50" relative="1" as="geometry">
                        <mxPoint x="630.0000000000002" y="1349.49" as="sourcePoint"/>
                        <mxPoint x="970" y="1349.4275" as="targetPoint"/>
                        <mxPoint as="offset"/>
                    </mxGeometry>
                </mxCell>
                <mxCell id="91" value="CSVs resultado de detección de morphing" style="endArrow=classic;html=1;fontSize=15;fontColor=#000000;" parent="1" edge="1">
                    <mxGeometry width="50" height="50" relative="1" as="geometry">
                        <mxPoint x="650" y="1379.49" as="sourcePoint"/>
                        <mxPoint x="970" y="1378.49" as="targetPoint"/>
                    </mxGeometry>
                </mxCell>
                <mxCell id="92" value="CSV de reconocimineto facial" style="endArrow=classic;html=1;fontSize=15;fontColor=#000000;" parent="1" edge="1">
                    <mxGeometry x="0.2" width="50" height="50" relative="1" as="geometry">
                        <mxPoint x="670" y="1409.49" as="sourcePoint"/>
                        <mxPoint x="970" y="1409.49" as="targetPoint"/>
                        <mxPoint as="offset"/>
                    </mxGeometry>
                </mxCell>
                <mxCell id="93" value="" style="endArrow=none;html=1;fontSize=15;fontColor=#000000;" parent="1" edge="1">
                    <mxGeometry width="50" height="50" relative="1" as="geometry">
                        <mxPoint x="650" y="1510" as="sourcePoint"/>
                        <mxPoint x="650" y="1380" as="targetPoint"/>
                    </mxGeometry>
                </mxCell>
                <mxCell id="94" value="" style="endArrow=none;html=1;fontSize=15;fontColor=#000000;" parent="1" edge="1">
                    <mxGeometry width="50" height="50" relative="1" as="geometry">
                        <mxPoint x="670" y="1490" as="sourcePoint"/>
                        <mxPoint x="670" y="1410" as="targetPoint"/>
                    </mxGeometry>
                </mxCell>
                <mxCell id="95" value="eval.py" style="sketch=0;pointerEvents=1;shadow=0;dashed=0;html=1;strokeColor=#006EAF;fillColor=#1ba1e2;labelPosition=center;verticalLabelPosition=bottom;verticalAlign=top;outlineConnect=0;align=center;shape=mxgraph.office.concepts.script;fontColor=#000000;fontSize=15;" parent="1" vertex="1">
                    <mxGeometry x="1195" y="784.7499999999999" width="40" height="39.5" as="geometry"/>
                </mxCell>
                <mxCell id="96" value="Mejores resultados" style="endArrow=classic;html=1;fontSize=15;fontColor=#000000;" parent="1" edge="1">
                    <mxGeometry x="0.0588" width="50" height="50" relative="1" as="geometry">
                        <mxPoint x="1120" y="1369.71" as="sourcePoint"/>
                        <mxPoint x="1300" y="1369.53" as="targetPoint"/>
                        <mxPoint as="offset"/>
                    </mxGeometry>
                </mxCell>
                <mxCell id="97" value="Gráficos" style="endArrow=classic;html=1;fontSize=15;fontColor=#000000;" parent="1" edge="1">
                    <mxGeometry x="0.0588" width="50" height="50" relative="1" as="geometry">
                        <mxPoint x="1120" y="1389.8000000000002" as="sourcePoint"/>
                        <mxPoint x="1300" y="1389.62" as="targetPoint"/>
                        <mxPoint as="offset"/>
                    </mxGeometry>
                </mxCell>
                <mxCell id="99" value="Conjunto adaptado" style="endArrow=classic;html=1;fontColor=#000000;fontSize=15;dashed=1;" edge="1" parent="1">
                    <mxGeometry x="0.0048" width="50" height="50" relative="1" as="geometry">
                        <mxPoint x="280" y="230" as="sourcePoint"/>
                        <mxPoint x="279.7" y="274.88" as="targetPoint"/>
                        <mxPoint as="offset"/>
                    </mxGeometry>
                </mxCell>
                <mxCell id="102" value="" style="endArrow=none;html=1;fontSize=15;fontColor=#000000;" edge="1" parent="1">
                    <mxGeometry width="50" height="50" relative="1" as="geometry">
                        <mxPoint x="740" y="899.5" as="sourcePoint"/>
                        <mxPoint x="740" y="400" as="targetPoint"/>
                    </mxGeometry>
                </mxCell>
                <mxCell id="103" value="" style="endArrow=none;html=1;fontSize=15;fontColor=#000000;" edge="1" parent="1">
                    <mxGeometry width="50" height="50" relative="1" as="geometry">
                        <mxPoint x="760" y="830" as="sourcePoint"/>
                        <mxPoint x="760" y="230" as="targetPoint"/>
                    </mxGeometry>
                </mxCell>
                <mxCell id="105" value="" style="endArrow=none;html=1;fontSize=15;fontColor=#000000;" edge="1" parent="1">
                    <mxGeometry width="50" height="50" relative="1" as="geometry">
                        <mxPoint x="780" y="755" as="sourcePoint"/>
                        <mxPoint x="780" y="200" as="targetPoint"/>
                    </mxGeometry>
                </mxCell>
                <mxCell id="106" value="" style="endArrow=classic;html=1;fontSize=15;fontColor=#000000;entryX=0;entryY=0.5;entryDx=0;entryDy=0;" edge="1" parent="1">
                    <mxGeometry width="50" height="50" relative="1" as="geometry">
                        <mxPoint x="780" y="200.5" as="sourcePoint"/>
                        <mxPoint x="810" y="200.875" as="targetPoint"/>
                    </mxGeometry>
                </mxCell>
                <mxCell id="107" value="" style="endArrow=classic;html=1;fontSize=15;fontColor=#000000;entryX=0;entryY=0.5;entryDx=0;entryDy=0;" edge="1" parent="1">
                    <mxGeometry width="50" height="50" relative="1" as="geometry">
                        <mxPoint x="780" y="370" as="sourcePoint"/>
                        <mxPoint x="810" y="370.375" as="targetPoint"/>
                    </mxGeometry>
                </mxCell>
                <mxCell id="108" value="" style="endArrow=classic;html=1;fontSize=15;fontColor=#000000;entryX=0;entryY=0.5;entryDx=0;entryDy=0;" edge="1" parent="1">
                    <mxGeometry width="50" height="50" relative="1" as="geometry">
                        <mxPoint x="760" y="229" as="sourcePoint"/>
                        <mxPoint x="810" y="229.445" as="targetPoint"/>
                    </mxGeometry>
                </mxCell>
                <mxCell id="109" value="" style="endArrow=classic;html=1;fontSize=15;fontColor=#000000;entryX=0;entryY=0.5;entryDx=0;entryDy=0;" edge="1" parent="1">
                    <mxGeometry width="50" height="50" relative="1" as="geometry">
                        <mxPoint x="740" y="400" as="sourcePoint"/>
                        <mxPoint x="810.0000000000005" y="400.375" as="targetPoint"/>
                    </mxGeometry>
                </mxCell>
                <mxCell id="111" value="1" style="text;html=1;strokeColor=none;fillColor=none;align=center;verticalAlign=middle;whiteSpace=wrap;rounded=0;fontSize=21;" vertex="1" parent="1">
                    <mxGeometry x="355" y="150" width="35" height="30" as="geometry"/>
                </mxCell>
                <mxCell id="112" value="2" style="text;html=1;strokeColor=none;fillColor=none;align=center;verticalAlign=middle;whiteSpace=wrap;rounded=0;fontSize=21;" vertex="1" parent="1">
                    <mxGeometry x="360" y="410" width="35" height="30" as="geometry"/>
                </mxCell>
                <mxCell id="113" value="3" style="text;html=1;strokeColor=none;fillColor=none;align=center;verticalAlign=middle;whiteSpace=wrap;rounded=0;fontSize=21;" vertex="1" parent="1">
                    <mxGeometry x="430" y="680" width="35" height="30" as="geometry"/>
                </mxCell>
                <mxCell id="114" value="4" style="text;html=1;strokeColor=none;fillColor=none;align=center;verticalAlign=middle;whiteSpace=wrap;rounded=0;fontSize=21;" vertex="1" parent="1">
                    <mxGeometry x="960" y="150" width="35" height="30" as="geometry"/>
                </mxCell>
                <mxCell id="115" value="5" style="text;html=1;strokeColor=none;fillColor=none;align=center;verticalAlign=middle;whiteSpace=wrap;rounded=0;fontSize=21;" vertex="1" parent="1">
                    <mxGeometry x="1100" y="325" width="35" height="30" as="geometry"/>
                </mxCell>
                <mxCell id="116" value="6" style="text;html=1;strokeColor=none;fillColor=none;align=center;verticalAlign=middle;whiteSpace=wrap;rounded=0;fontSize=21;" vertex="1" parent="1">
                    <mxGeometry x="960" y="490.5" width="35" height="30" as="geometry"/>
                </mxCell>
                <mxCell id="117" value="7" style="text;html=1;strokeColor=none;fillColor=none;align=center;verticalAlign=middle;whiteSpace=wrap;rounded=0;fontSize=21;" vertex="1" parent="1">
                    <mxGeometry x="1290" y="739.75" width="35" height="30" as="geometry"/>
                </mxCell>
                <mxCell id="119" value="CSVs resultado de &lt;br&gt;detección de difusión" style="endArrow=none;html=1;fontSize=15;fontColor=#000000;endFill=0;" edge="1" parent="1">
                    <mxGeometry x="0.0588" width="50" height="50" relative="1" as="geometry">
                        <mxPoint x="960" y="220" as="sourcePoint"/>
                        <mxPoint x="1240" y="220" as="targetPoint"/>
                        <mxPoint as="offset"/>
                    </mxGeometry>
                </mxCell>
                <mxCell id="120" value="CSV de reconocimineto facial" style="endArrow=none;html=1;fontSize=15;fontColor=#000000;endFill=0;" edge="1" parent="1">
                    <mxGeometry width="50" height="50" relative="1" as="geometry">
                        <mxPoint x="960" y="558.25" as="sourcePoint"/>
                        <mxPoint x="1200" y="558" as="targetPoint"/>
                        <mxPoint as="offset"/>
                    </mxGeometry>
                </mxCell>
                <mxCell id="124" value="" style="endArrow=none;html=1;fontSize=15;fontColor=#000000;" edge="1" parent="1">
                    <mxGeometry width="50" height="50" relative="1" as="geometry">
                        <mxPoint x="1200" y="738.0000000000002" as="sourcePoint"/>
                        <mxPoint x="1200" y="558" as="targetPoint"/>
                    </mxGeometry>
                </mxCell>
                <mxCell id="125" value="" style="endArrow=none;html=1;fontSize=15;fontColor=#000000;" edge="1" parent="1">
                    <mxGeometry width="50" height="50" relative="1" as="geometry">
                        <mxPoint x="1220" y="708" as="sourcePoint"/>
                        <mxPoint x="1220" y="390" as="targetPoint"/>
                    </mxGeometry>
                </mxCell>
                <mxCell id="126" value="" style="endArrow=none;html=1;fontSize=15;fontColor=#000000;" edge="1" parent="1">
                    <mxGeometry width="50" height="50" relative="1" as="geometry">
                        <mxPoint x="1240" y="680.0000000000002" as="sourcePoint"/>
                        <mxPoint x="1240" y="220" as="targetPoint"/>
                    </mxGeometry>
                </mxCell>
                <mxCell id="127" value="CSVs resultado&lt;br&gt;&amp;nbsp;de detección&lt;br&gt;&amp;nbsp;de morphing" style="endArrow=none;html=1;fontSize=15;fontColor=#000000;" edge="1" parent="1">
                    <mxGeometry width="50" height="50" relative="1" as="geometry">
                        <mxPoint x="1220" y="390" as="sourcePoint"/>
                        <mxPoint x="1100" y="389.57000000000005" as="targetPoint"/>
                        <mxPoint as="offset"/>
                    </mxGeometry>
                </mxCell>
            </root>
        </mxGraphModel>
    </diagram>
</mxfile>